<?xml version="1.0" standalone="no"?>
<!DOCTYPE svg PUBLIC "-//W3C//DTD SVG 20010904//EN"
 "http://www.w3.org/TR/2001/REC-SVG-20010904/DTD/svg10.dtd">
<svg version="1.0" xmlns="http://www.w3.org/2000/svg"
 width="201.000000pt" height="159.000000pt" viewBox="0 0 201.000000 159.000000"
 preserveAspectRatio="xMidYMid meet">

<g transform="translate(0.000000,159.000000) scale(0.100000,-0.100000)"
fill="#000000" stroke="none">
<path d="M168 1469 c-21 -12 -24 -52 -5 -67 7 -7 65 -13 132 -14 117 -3 118
-3 126 -28 8 -28 72 -261 179 -654 38 -143 77 -267 86 -278 16 -17 41 -18 406
-18 249 0 396 4 409 10 21 12 25 50 7 68 -9 9 -109 12 -388 12 l-376 0 -17 64
c-9 35 -17 67 -17 70 0 3 184 7 410 8 297 2 412 6 421 15 16 16 150 561 147
598 -5 55 -2 55 -609 55 l-555 0 -18 70 c-26 97 -31 100 -191 100 -71 0 -138
-5 -147 -11z m616 -306 c4 -32 9 -77 13 -100 l5 -43 -99 0 -100 0 -23 88 c-13
48 -25 93 -28 100 -3 9 23 12 111 12 l115 0 6 -57z m266 -43 l0 -100 -79 0
c-44 0 -82 3 -84 8 -3 4 -8 49 -12 100 l-7 92 91 0 91 0 0 -100z m265 23 c-11
-131 -5 -123 -96 -123 l-79 0 0 100 0 100 91 0 91 0 -7 -77z m281 60 c-3 -10
-10 -38 -16 -63 -6 -25 -16 -62 -21 -82 l-10 -38 -81 0 -80 0 6 58 c4 31 9 76
13 100 l5 42 95 0 c85 0 94 -2 89 -17z m-782 -330 c4 -32 9 -77 13 -100 l5
-43 -74 0 -75 0 -22 83 c-12 45 -24 90 -27 100 -5 15 4 17 84 17 l90 0 6 -57z
m236 -43 l0 -100 -64 0 -64 0 -6 33 c-3 17 -8 62 -12 100 l-7 67 77 0 76 0 0
-100z m236 43 c-4 -32 -9 -77 -13 -100 l-5 -43 -64 0 -64 0 0 100 0 100 76 0
76 0 -6 -57z m234 42 c0 -9 -10 -54 -21 -100 l-21 -85 -60 0 -60 0 6 68 c4 37
10 82 13 100 l5 32 69 0 c55 0 69 -3 69 -15z"/>
<path d="M739 347 c-43 -33 -48 -106 -11 -141 44 -39 132 -24 148 26 22 72
-13 128 -80 128 -23 0 -48 -6 -57 -13z"/>
<path d="M1306 329 c-31 -37 -33 -77 -6 -112 41 -52 125 -43 154 17 30 63 -10
126 -80 126 -35 0 -47 -5 -68 -31z"/>
</g>
</svg>
