<?xml version="1.0" encoding="UTF-8" standalone="no"?><!-- Generator: Gravit.io --><svg xmlns="http://www.w3.org/2000/svg" xmlns:xlink="http://www.w3.org/1999/xlink" style="isolation:isolate" viewBox="0 0 770 210" width="770pt" height="210pt"><defs><clipPath id="_clipPath_gJMTthsx2jnj3TEHWjGMrAfzFwktj7y0"><rect width="770" height="210"/></clipPath></defs><g clip-path="url(#_clipPath_gJMTthsx2jnj3TEHWjGMrAfzFwktj7y0)"><rect width="770" height="210" style="fill:rgb(232,144,144)" fill-opacity="0"/><path d=" M 98 68 Q 75.326 65.406 63 66 Q 49.817 66.636 26 72 L 15 80.333 L 7 90 L 7 101.527 L 11 112 L 21 123 L 31.992 133 L 46 142 L 95 167 L 143 187 L 185 198 L 229 206 L 268 209 L 294.179 205 L 317 198 L 328 192 L 338 185 L 346 175 L 350 168.5 L 352 163 L 352 158 L 350 153 L 341 140.617 L 328 127 L 295 104 L 285 62 L 274 45.047 L 268 36 L 261 29 L 250 23 L 227 13 L 212 9 L 197 6 L 183 8 L 163 11 L 151 6 L 134 6 L 125 13 L 115 29 L 104 54 L 90 90 L 77 96 L 82 112 L 104 128 L 143 142 L 180 153 L 202 156 L 220.226 158 L 233 158 Q 242.739 158.393 248 158 Q 254.403 157.522 266 155 L 282 146 L 295 133 L 296 112 L 285 62 L 243 44 L 219 31 L 198 22 L 163 11" fill="rgb(255,255,255)" vector-effect="non-scaling-stroke" stroke-width="1" stroke="rgb(0,0,0)" stroke-linejoin="miter" stroke-linecap="square" stroke-miterlimit="3"/><rect x="288.294" y="61.128" width="1.73" height="45.24" transform="matrix(0.975,-0.221,0.221,0.975,-11.357,65.946)" fill="rgb(0,0,0)"/><rect x="79.287" y="95.568" width="1.719" height="16.51" transform="matrix(0.96,-0.281,0.281,0.96,-25.961,26.726)" fill="rgb(0,0,0)"/><rect x="83.023" y="110.592" width="1.719" height="4.379" transform="matrix(0.757,-0.654,0.654,0.757,-53.328,82.299)" fill="rgb(0,0,0)"/><rect x="85.321" y="113.475" width="1.287" height="3.05" transform="matrix(-0.62,0.784,-0.784,-0.62,229.489,118.934)" fill="rgb(0,0,0)"/><rect x="294.109" y="104.585" width="1.346" height="7.357" transform="matrix(0.963,-0.27,0.27,0.963,-18.285,83.639)" fill="rgb(0,0,0)"/><path d=" M 46 84 L 36 90 L 30 96 L 30 105.618 L 30 111.624 L 36 117 L 40 123 L 46 127 L 53 129 L 58 131 L 64 133 L 75 137 L 81.801 139 L 88 138 L 89 133.842 L 88 131 L 87 128.361 L 85 125 L 74 117 L 64 111.624 L 55 104.54 L 50 96 L 55 90 L 63 86 L 46 84 Z " fill="rgb(246,246,242)"/><path d=" M 250 68 L 245 72 L 240 77 L 243 86 L 250 94 L 254 101.527 L 256 110 L 254 117 L 251 127 L 252 131 L 261 133 L 272 128 L 283.319 125 L 289 119 L 289 112 L 289 104 L 288 94 L 285.006 82 L 282 75 L 278 64 L 270 60 L 263 56 L 259 60 L 250 68 Z " fill="rgb(246,246,242)"/><path d=" M 132 13 L 129 17 L 125 20 L 123 24 L 121 28 L 121 31 L 125 34 L 132 33 L 134 29 L 138 23 L 143 19 L 144 14 L 141 12 L 137 11 L 132 13 Z " fill="rgb(246,246,242)"/><path d=" M 227 24 L 227 20 L 231 18 L 236 20 L 245 24 L 252 27 L 257 31 L 261 34 L 265 38 L 268 41 L 271 44 L 274 47.75 L 275 51 Q 271.803 51.996 270 52 Q 267.408 52.006 263 50 L 252 44 L 243 36 L 236 31 L 231 27 L 227 24 Z " fill="rgb(246,246,242)"/><path d=" M 305 139 L 305 145 L 305 148 L 304 153 L 298 160 L 291 162 L 282 162 L 271 162 L 262 166 L 261 172 L 263 176 L 267 179 L 277 181 Q 284.201 179.682 286 180 C 287.799 180.318 291.097 179.58 293.14 179 Q 295.183 178.42 300 178 L 305 175 L 310 173 L 316 170 L 319 165 L 322 159 Q 322.235 155.686 323 154 C 323.765 152.314 322.446 150.281 322 148 Q 321.554 145.719 318 141 L 314 138 L 309 137 L 305 139 Z " fill="rgb(246,246,242)"/><g clip-path="url(#_clipPath_ef6F4mRgFPP5D3ZbqV4HEhF8ceogtugW)"><text transform="matrix(1,0,0,1,352,140.08)" style="font-family:'Geostar Fill';font-weight:400;font-size:140px;font-style:normal;fill:#464646;stroke:none;">PTH</text></g><defs><clipPath id="_clipPath_ef6F4mRgFPP5D3ZbqV4HEhF8ceogtugW"><rect x="0" y="0" width="428" height="231" transform="matrix(1,0,0,1,352,11)"/></clipPath></defs></g></svg>