<?xml version="1.0" encoding="UTF-8" standalone="no"?><!-- Generator: Gravit.io --><svg xmlns="http://www.w3.org/2000/svg" xmlns:xlink="http://www.w3.org/1999/xlink" style="isolation:isolate" viewBox="0 0 780 210" width="780pt" height="210pt"><defs><clipPath id="_clipPath_12b9KMFSRkkYl4zb5CgA7Qy1IVXt5Sro"><rect width="780" height="210"/></clipPath></defs><g clip-path="url(#_clipPath_12b9KMFSRkkYl4zb5CgA7Qy1IVXt5Sro)"><rect width="780" height="210" style="fill:rgb(232,144,144)" fill-opacity="0"/><path d=" M 100.294 66.505 Q 77.62 63.91 65.294 64.505 Q 52.112 65.14 28.294 70.505 L 17.294 78.837 L 9.294 88.505 L 9.294 100.032 L 13.294 110.505 L 23.294 121.505 L 34.286 131.505 L 48.294 140.505 L 97.294 165.505 L 145.294 185.505 L 187.294 196.505 L 231.294 204.505 L 270.294 207.505 L 296.473 203.505 L 319.294 196.505 L 330.294 190.505 L 340.294 183.505 L 348.294 173.505 L 352.294 167.005 L 354.294 161.505 L 354.294 156.505 L 352.294 151.505 L 343.294 139.122 L 330.294 125.505 L 297.294 102.505 L 287.294 60.505 L 276.294 43.552 L 270.294 34.505 L 263.294 27.505 L 252.294 21.505 L 229.294 11.505 L 214.294 7.505 L 199.294 4.505 L 185.294 6.505 L 165.294 9.505 L 153.294 4.505 L 136.294 4.505 L 127.294 11.505 L 117.294 27.505 L 106.294 52.505 L 92.294 88.505 L 79.294 94.505 L 84.294 110.505 L 106.294 126.505 L 145.294 140.505 L 182.294 151.505 L 204.294 154.505 L 222.52 156.505 L 235.294 156.505 Q 245.034 156.897 250.294 156.505 Q 256.697 156.027 268.294 153.505 L 284.294 144.505 L 297.294 131.505 L 298.294 110.505 L 287.294 60.505 L 245.294 42.505 L 221.294 29.505 L 200.294 20.505 L 165.294 9.505" fill="rgb(255,255,255)" vector-effect="non-scaling-stroke" stroke-width="1" stroke="rgb(0,0,0)" stroke-linejoin="miter" stroke-linecap="square" stroke-miterlimit="3"/><rect x="290.589" y="59.632" width="1.73" height="45.24" transform="matrix(0.975,-0.221,0.221,0.975,-10.97,66.416)" fill="rgb(0,0,0)"/><rect x="81.581" y="94.073" width="1.719" height="16.51" transform="matrix(0.96,-0.281,0.281,0.96,-25.448,27.311)" fill="rgb(0,0,0)"/><rect x="85.317" y="109.097" width="1.719" height="4.379" transform="matrix(0.757,-0.654,0.654,0.757,-51.792,83.435)" fill="rgb(0,0,0)"/><rect x="87.615" y="111.98" width="1.287" height="3.05" transform="matrix(-0.62,0.784,-0.784,-0.62,232.034,114.712)" fill="rgb(0,0,0)"/><rect x="296.403" y="103.09" width="1.346" height="7.357" transform="matrix(0.963,-0.27,0.27,0.963,-17.796,84.203)" fill="rgb(0,0,0)"/><path d=" M 48.294 82.505 L 38.294 88.505 L 32.294 94.505 L 32.294 104.122 L 32.294 110.128 L 38.294 115.505 L 42.294 121.505 L 48.294 125.505 L 55.294 127.505 L 60.294 129.505 L 66.294 131.505 L 77.294 135.505 L 84.095 137.505 L 90.294 136.505 L 91.294 132.346 L 90.294 129.505 L 89.294 126.865 L 87.294 123.505 L 76.294 115.505 L 66.294 110.128 L 57.294 103.045 L 52.294 94.505 L 57.294 88.505 L 65.294 84.505 L 48.294 82.505 Z " fill="rgb(246,246,242)"/><path d=" M 252.294 66.505 L 247.294 70.505 L 242.294 75.505 L 245.294 84.505 L 252.294 92.505 L 256.294 100.032 L 258.294 108.505 L 256.294 115.505 L 253.294 125.505 L 254.294 129.505 L 263.294 131.505 L 274.294 126.505 L 285.613 123.505 L 291.294 117.505 L 291.294 110.505 L 291.294 102.505 L 290.294 92.505 L 287.301 80.505 L 284.294 73.505 L 280.294 62.505 L 272.294 58.505 L 265.294 54.505 L 261.294 58.505 L 252.294 66.505 Z " fill="rgb(246,246,242)"/><path d=" M 134.294 11.505 L 131.294 15.505 L 127.294 18.505 L 125.294 22.505 L 123.294 26.505 L 123.294 29.505 L 127.294 32.505 L 134.294 31.505 L 136.294 27.505 L 140.294 21.505 L 145.294 17.505 L 146.294 12.505 L 143.294 10.505 L 139.294 9.505 L 134.294 11.505 Z " fill="rgb(246,246,242)"/><path d=" M 229.294 22.505 L 229.294 18.505 L 233.294 16.505 L 238.294 18.505 L 247.294 22.505 L 254.294 25.505 L 259.294 29.505 L 263.294 32.505 L 267.294 36.505 L 270.294 39.505 L 273.294 42.505 L 276.294 46.255 L 277.294 49.505 Q 274.097 50.501 272.294 50.505 Q 269.702 50.51 265.294 48.505 L 254.294 42.505 L 245.294 34.505 L 238.294 29.505 L 233.294 25.505 L 229.294 22.505 Z " fill="rgb(246,246,242)"/><path d=" M 307.294 137.505 L 307.294 143.505 L 307.294 146.505 L 306.294 151.505 L 300.294 158.505 L 293.294 160.505 L 284.294 160.505 L 273.294 160.505 L 264.294 164.505 L 263.294 170.505 L 265.294 174.505 L 269.294 177.505 L 279.294 179.505 Q 286.495 178.186 288.294 178.505 C 290.093 178.823 293.391 178.085 295.434 177.505 Q 297.477 176.924 302.294 176.505 L 307.294 173.505 L 312.294 171.505 L 318.294 168.505 L 321.294 163.505 L 324.294 157.505 Q 324.529 154.191 325.294 152.505 C 326.059 150.819 324.74 148.786 324.294 146.505 Q 323.848 144.224 320.294 139.505 L 316.294 136.505 L 311.294 135.505 L 307.294 137.505 Z " fill="rgb(246,246,242)"/><g clip-path="url(#_clipPath_13aDiJLPEZQS3IyVXOGeEYIgx48ZIlT2)"><text transform="matrix(1,0,0,1,361.294,152.585)" style="font-family:'Geostar Fill';font-weight:400;font-size:140px;font-style:normal;fill:#ffffff;stroke:none;">PTH</text></g><defs><clipPath id="_clipPath_13aDiJLPEZQS3IyVXOGeEYIgx48ZIlT2"><rect x="0" y="0" width="428" height="231" transform="matrix(1,0,0,1,361.294,23.505)"/></clipPath></defs></g></svg>